<?xml version="1.0" encoding="utf-8"?>
<!-- Generator: Adobe Illustrator 17.1.0, SVG Export Plug-In . SVG Version: 6.00 Build 0)  -->
<!DOCTYPE svg PUBLIC "-//W3C//DTD SVG 1.1//EN" "http://www.w3.org/Graphics/SVG/1.1/DTD/svg11.dtd" [
	<!ENTITY ns_extend "http://ns.adobe.com/Extensibility/1.0/">
	<!ENTITY ns_ai "http://ns.adobe.com/AdobeIllustrator/10.0/">
	<!ENTITY ns_graphs "http://ns.adobe.com/Graphs/1.0/">
	<!ENTITY ns_vars "http://ns.adobe.com/Variables/1.0/">
	<!ENTITY ns_imrep "http://ns.adobe.com/ImageReplacement/1.0/">
	<!ENTITY ns_sfw "http://ns.adobe.com/SaveForWeb/1.0/">
	<!ENTITY ns_custom "http://ns.adobe.com/GenericCustomNamespace/1.0/">
	<!ENTITY ns_adobe_xpath "http://ns.adobe.com/XPath/1.0/">
]>
<svg version="1.1" id="图层_1" xmlns:x="&ns_extend;" xmlns:i="&ns_ai;" xmlns:graph="&ns_graphs;"
	 xmlns="http://www.w3.org/2000/svg" xmlns:xlink="http://www.w3.org/1999/xlink" x="0px" y="0px" width="96px" height="96px"
	 viewBox="0 0 96 96" enable-background="new 0 0 96 96" xml:space="preserve">
<metadata>
	<sfw  xmlns="&ns_sfw;">
		<slices></slices>
		<sliceSourceBounds  width="96" height="96" x="23" y="20" bottomLeftOrigin="true"></sliceSourceBounds>
		<optimizationSettings>
			<targetSettings  fileFormat="PNG24Format" targetSettingsID="0">
				<PNG24Format  transparency="true" matteColor="#FFFFFF" noMatteColor="false" interlaced="false" filtered="false">
					</PNG24Format>
			</targetSettings>
		</optimizationSettings>
	</sfw>
</metadata>
<g id="DO_NOT_EDIT_-_BOUNDING_BOX">
</g>
<g id="DO_NOT_EDIT_-_SHADOW">
</g>
<g id="GRAY_BACKGROUNDS">
</g>
<g>
	<rect fill="none" width="96" height="96"/>
	<path fill-opacity="0.4" d="M88,49c0,29.635-10.361,40-40,40C18.367,89,8,78.635,8,49C8,19.367,18.367,9,48,9
		C77.637,9,88,19.367,88,49z"/>
	
		<linearGradient id="SVGID_1_" gradientUnits="userSpaceOnUse" x1="255.3949" y1="-1069.424" x2="255.3949" y2="-1149.424" gradientTransform="matrix(1 0 0 -1 -207.3949 -1061.7607)">
		<stop  offset="0" style="stop-color:#8E8E8E"/>
		<stop  offset="1" style="stop-color:#575757"/>
	</linearGradient>
	<path fill="url(#SVGID_1_)" d="M88,48c0,29.635-10.361,40-40,40C18.367,88,8,77.635,8,48C8,18.367,18.367,8,48,8
		C77.637,8,88,18.367,88,48z"/>
	
		<linearGradient id="SVGID_2_" gradientUnits="userSpaceOnUse" x1="255.3949" y1="-1070.0137" x2="255.3949" y2="-1149.2589" gradientTransform="matrix(1 0 0 -1 -207.3949 -1061.7607)">
		<stop  offset="0" style="stop-color:#FFFFFF"/>
		<stop  offset="1" style="stop-color:#FFFFFF;stop-opacity:0"/>
	</linearGradient>
	<path fill="url(#SVGID_2_)" fill-opacity="0.15" d="M48,8C18.367,8,8,18.367,8,48c0,29.635,10.367,40,40,40
		c29.639,0,40-10.365,40-40C88,18.367,77.637,8,48,8z M48,87C18.842,87,9,77.158,9,48S18.842,9,48,9c29.16,0,39,9.842,39,39
		S77.16,87,48,87z"/>
	<g>
		<path fill="#010202" fill-opacity="0.02" d="M28.636,76.008c-1.064,0-2.101-0.438-2.844-1.199
			c-0.745-0.766-1.154-1.813-1.13-2.875l0.993-39.588c0.058-2.172,1.802-3.872,3.974-3.872h4.958
			c4.795-9.71,11.446-10.479,13.398-10.479c1.953,0,8.609,0.768,13.399,10.479h4.993c2.189,0,3.973,1.782,3.973,3.973l0.988,39.449
			c0.025,1.08-0.384,2.133-1.127,2.896c-0.752,0.772-1.79,1.218-2.842,1.218H28.636V76.008z M50.155,28.472
			c-0.771-0.766-1.496-1.167-2.168-1.188c-0.67,0.021-1.396,0.419-2.17,1.188H50.155z"/>
		<path fill="#010202" fill-opacity="0.05" d="M28.636,75.014c-0.798,0-1.574-0.326-2.133-0.896
			c-0.559-0.573-0.865-1.358-0.848-2.156l0.994-39.59c0.043-1.627,1.352-2.904,2.979-2.904h5.583
			c4.56-9.711,10.909-10.479,12.774-10.479c1.871,0,8.224,0.767,12.777,10.479h5.615c1.643,0,2.979,1.338,2.979,2.979l0.99,39.471
			c0.021,0.813-0.289,1.604-0.847,2.18c-0.565,0.582-1.345,0.92-2.129,0.92H28.636V75.014z M52.257,29.465
			c-1.131-1.604-2.595-3.14-4.268-3.175c-1.672,0.032-3.139,1.566-4.273,3.175H52.257z"/>
		<path fill="#010202" fill-opacity="0.1" d="M28.636,74.021c-0.531,0-1.051-0.22-1.422-0.603c-0.373-0.385-0.578-0.905-0.563-1.438
			l0.992-39.59c0.028-1.084,0.9-1.936,1.986-1.936h6.223c4.323-9.711,10.36-10.48,12.137-10.48s7.818,0.769,12.139,10.48h6.256
			c1.094,0,1.985,0.891,1.985,1.986l0.989,39.5c0.016,0.547-0.19,1.078-0.563,1.459c-0.386,0.394-0.903,0.619-1.421,0.619
			L28.636,74.021L28.636,74.021z M54.08,30.458c-1.511-2.511-3.521-5.119-6.091-5.161c-2.569,0.035-4.584,2.646-6.098,5.161H54.08z"
			/>
		<path fill="#010202" fill-opacity="0.2" d="M28.636,73.027c-0.267,0-0.521-0.106-0.711-0.297
			c-0.188-0.194-0.289-0.453-0.281-0.726l0.992-39.587c0.016-0.538,0.453-0.97,0.993-0.97h6.872
			c4.098-9.709,9.807-10.479,11.484-10.479c1.68,0,7.395,0.768,11.486,10.479h6.906c0.55,0,0.994,0.444,0.994,0.993l0.988,39.522
			c0.006,0.271-0.096,0.553-0.281,0.741s-0.439,0.321-0.707,0.321H28.636V73.027z M55.78,31.452
			c-0.145-0.274-0.288-0.544-0.438-0.802c-1.684-2.933-4.044-6.304-7.354-6.347c-3.313,0.035-5.678,3.412-7.367,6.349
			c-0.146,0.256-0.291,0.522-0.436,0.8H55.78z"/>
		<path fill="#010202" fill-opacity="0.2" d="M67.368,71.99l-0.989-39.429v-0.116h-7.573c-3.354-8.427-8.061-10.48-10.818-10.48
			c-2.635,0-7.412,1.94-10.819,10.48h-7.538l-0.994,39.589h38.738L67.368,71.99z M38.623,32.445
			c0.329-0.753,0.706-1.528,1.142-2.288c1.791-3.113,4.41-6.813,8.229-6.847c3.812,0.043,6.43,3.739,8.214,6.847
			c0.436,0.76,0.813,1.534,1.143,2.288H38.623z"/>
		
			<linearGradient id="SVGID_3_" gradientUnits="userSpaceOnUse" x1="267.6059" y1="-2082.0051" x2="267.6059" y2="-2034.2888" gradientTransform="matrix(1 0 0 -1 -219.6024 -2003.1191)">
			<stop  offset="0" style="stop-color:#E6E2D8"/>
			<stop  offset="1" style="stop-color:#FFFFFF"/>
		</linearGradient>
		<polygon fill="url(#SVGID_3_)" points="67.371,70.585 28.636,70.585 29.629,30.996 66.379,30.996 		"/>
		
			<linearGradient id="SVGID_4_" gradientUnits="userSpaceOnUse" x1="267.6079" y1="-2043.6318" x2="267.6079" y2="-2035.2532" gradientTransform="matrix(1 0 0 -1 -219.6024 -2003.1191)">
			<stop  offset="0" style="stop-color:#FFFFFF"/>
			<stop  offset="1" style="stop-color:#F1EFE9"/>
		</linearGradient>
		<polygon fill="url(#SVGID_4_)" points="66.379,39.235 29.632,39.235 29.632,31.042 66.379,31.042 		"/>
		<polygon fill="#FFFFFF" points="66.379,31.988 29.632,31.988 29.632,30.996 66.379,30.996 		"/>
		<path fill="#231F20" fill-opacity="0.3" d="M39.226,31.038c-2.568,2.554-3.562,4.771-3.586,4.826
			c-0.375,0.836,0.891,1.295,1.223,0.547l-0.002-0.003c0,0,0.07-0.152,0.24-0.463c0.487-0.877,1.752-2.853,4.101-4.905
			L39.226,31.038L39.226,31.038z"/>
		<path fill="#231F20" fill-opacity="0.3" d="M56.778,31.038h-1.967c1.039,1.061,2.528,2.063,4.33,5.373
			c0.351,0.771,1.606,0.316,1.227-0.547C60.345,35.808,59.351,33.592,56.778,31.038z"/>
		<path fill="#FFFFFF" d="M37.228,37.303c0,0.55-0.443,0.997-0.994,0.997c-0.547,0-0.991-0.446-0.991-0.997
			c0-0.552,0.444-0.997,0.991-0.997C36.782,36.307,37.228,36.752,37.228,37.303z"/>
		<path fill="#1A1A1A" d="M37.228,36.31c0,0.55-0.443,0.998-0.994,0.998c-0.547,0-0.991-0.446-0.991-0.998
			c0-0.553,0.444-0.996,0.991-0.996C36.782,35.313,37.228,35.758,37.228,36.31z"/>
		<path fill="#FFFFFF" d="M60.792,37.303c0,0.55-0.443,0.997-0.992,0.997c-0.547,0-0.992-0.446-0.992-0.997
			c0-0.552,0.446-0.997,0.992-0.997C60.349,36.307,60.792,36.752,60.792,37.303z"/>
		<path fill="#1A1A1A" d="M60.792,36.31c0,0.55-0.443,0.998-0.992,0.998c-0.547,0-0.992-0.446-0.992-0.998
			c0-0.553,0.446-0.996,0.992-0.996C60.349,35.313,60.792,35.758,60.792,36.31z"/>
		
			<linearGradient id="SVGID_5_" gradientUnits="userSpaceOnUse" x1="267.5895" y1="-2032.9648" x2="267.5895" y2="-2039.5864" gradientTransform="matrix(1 0 0 -1 -219.6024 -2003.1191)">
			<stop  offset="0" style="stop-color:#FFFFFF"/>
			<stop  offset="0.4662" style="stop-color:#FDFDFD"/>
			<stop  offset="0.634" style="stop-color:#F7F7F7"/>
			<stop  offset="0.7537" style="stop-color:#ECEBEC"/>
			<stop  offset="0.8505" style="stop-color:#DCDBDC"/>
			<stop  offset="0.9324" style="stop-color:#C9C8C8"/>
			<stop  offset="1" style="stop-color:#B3B2B2"/>
		</linearGradient>
		<path fill="url(#SVGID_5_)" d="M60.392,35.878c-3.281-12.559-9.176-15.362-12.404-15.362c-3.078,0-9.078,2.639-12.404,15.36
			c-0.232,0.884,1.082,1.165,1.297,0.342c0.254-0.982,1.098-4.382,2.887-7.51c1.791-3.113,4.409-6.813,8.229-6.847
			c3.811,0.042,6.43,3.738,8.214,6.847c1.79,3.123,2.632,6.525,2.888,7.51C59.303,37.028,60.616,36.747,60.392,35.878z"/>
	</g>
	<g>
		<path opacity="0.2" fill="#FFFFFF" enable-background="new    " d="M59,68.736c-1.654,0-3-1.346-3-3c0,1.654-1.346,3-3,3h-3
			c-1.654,0-3-1.346-3-3v-3c0-1.654,1.346-3,3-3c-1.654,0-3-1.346-3-3v-3c0-1.654,1.346-3,3-3h3c1.654,0,3,1.346,3,3
			c0-1.654,1.346-3,3-3h3c1.654,0,3,1.346,3,3v3c0,1.654-1.346,3-3,3c1.654,0,3,1.346,3,3v3c0,1.654-1.346,3-3,3H59z M53,59.736
			c1.654,0,3,1.346,3,3c0-1.654,1.346-3,3-3c-1.654,0-3-1.346-3-3C56,58.391,54.654,59.736,53,59.736z"/>
		<path opacity="0.5" fill="#FFFFFF" enable-background="new    " d="M55,56.736c0,1.105-0.895,2-2,2h-3c-1.105,0-2-0.895-2-2v-3
			c0-1.105,0.895-2,2-2h3c1.105,0,2,0.895,2,2V56.736z M64,53.736c0-1.105-0.895-2-2-2h-3c-1.105,0-2,0.895-2,2v3
			c0,1.105,0.895,2,2,2h3c1.105,0,2-0.895,2-2V53.736z M64,62.736c0-1.105-0.895-2-2-2h-3c-1.105,0-2,0.895-2,2v3
			c0,1.105,0.895,2,2,2h3c1.105,0,2-0.895,2-2V62.736z M55,62.736c0-1.105-0.895-2-2-2h-3c-1.105,0-2,0.895-2,2v3
			c0,1.105,0.895,2,2,2h3c1.105,0,2-0.895,2-2V62.736z"/>
		
			<linearGradient id="SVGID_6_" gradientUnits="userSpaceOnUse" x1="51.5" y1="96.7657" x2="51.5" y2="89.7657" gradientTransform="matrix(1 0 0 1 0 -39)">
			<stop  offset="0" style="stop-color:#26ACFF"/>
			<stop  offset="1" style="stop-color:#0D7CFF"/>
		</linearGradient>
		<path fill="url(#SVGID_6_)" d="M55,55.736c0,1.105-0.895,2-2,2h-3c-1.105,0-2-0.895-2-2v-3c0-1.105,0.895-2,2-2h3
			c1.105,0,2,0.895,2,2V55.736z"/>
		
			<linearGradient id="SVGID_7_" gradientUnits="userSpaceOnUse" x1="60.5" y1="96.7657" x2="60.5" y2="89.7657" gradientTransform="matrix(1 0 0 1 0 -39)">
			<stop  offset="0" style="stop-color:#26ACFF"/>
			<stop  offset="1" style="stop-color:#0D7CFF"/>
		</linearGradient>
		<path fill="url(#SVGID_7_)" d="M64,55.736c0,1.105-0.895,2-2,2h-3c-1.105,0-2-0.895-2-2v-3c0-1.105,0.895-2,2-2h3
			c1.105,0,2,0.895,2,2V55.736z"/>
		
			<linearGradient id="SVGID_8_" gradientUnits="userSpaceOnUse" x1="60.5" y1="105.7657" x2="60.5" y2="98.7657" gradientTransform="matrix(1 0 0 1 0 -39)">
			<stop  offset="0" style="stop-color:#26ACFF"/>
			<stop  offset="1" style="stop-color:#0D7CFF"/>
		</linearGradient>
		<path fill="url(#SVGID_8_)" d="M64,64.736c0,1.105-0.895,2-2,2h-3c-1.105,0-2-0.895-2-2v-3c0-1.105,0.895-2,2-2h3
			c1.105,0,2,0.895,2,2V64.736z"/>
		
			<linearGradient id="SVGID_9_" gradientUnits="userSpaceOnUse" x1="51.5" y1="105.7657" x2="51.5" y2="98.7657" gradientTransform="matrix(1 0 0 1 0 -39)">
			<stop  offset="0" style="stop-color:#26ACFF"/>
			<stop  offset="1" style="stop-color:#0D7CFF"/>
		</linearGradient>
		<path fill="url(#SVGID_9_)" d="M55,64.736c0,1.105-0.895,2-2,2h-3c-1.105,0-2-0.895-2-2v-3c0-1.105,0.895-2,2-2h3
			c1.105,0,2,0.895,2,2V64.736z"/>
		<g>
			<path opacity="0.05" enable-background="new    " d="M53,59.736h-3c-1.105,0-2,0.895-2,2v3c0,1.105,0.895,2,2,2h3
				c1.105,0,2-0.895,2-2v-3C55,60.632,54.104,59.736,53,59.736z M54,64.736c0,0.552-0.448,1-1,1h-3c-0.552,0-1-0.448-1-1v-3
				c0-0.552,0.448-1,1-1h3c0.552,0,1,0.448,1,1V64.736z"/>
			<path opacity="0.05" enable-background="new    " d="M62,59.736h-3c-1.105,0-2,0.895-2,2v3c0,1.105,0.895,2,2,2h3
				c1.105,0,2-0.895,2-2v-3C64,60.632,63.104,59.736,62,59.736z M63,64.736c0,0.552-0.448,1-1,1h-3c-0.552,0-1-0.448-1-1v-3
				c0-0.552,0.448-1,1-1h3c0.552,0,1,0.448,1,1V64.736z"/>
			<path opacity="0.05" enable-background="new    " d="M53,50.736h-3c-1.105,0-2,0.895-2,2v3c0,1.105,0.895,2,2,2h3
				c1.105,0,2-0.895,2-2v-3C55,51.632,54.104,50.736,53,50.736z M54,55.736c0,0.552-0.448,1-1,1h-3c-0.552,0-1-0.448-1-1v-3
				c0-0.552,0.448-1,1-1h3c0.552,0,1,0.448,1,1V55.736z"/>
			<path opacity="0.05" enable-background="new    " d="M62,50.736h-3c-1.105,0-2,0.895-2,2v3c0,1.105,0.895,2,2,2h3
				c1.105,0,2-0.895,2-2v-3C64,51.632,63.104,50.736,62,50.736z M63,55.736c0,0.552-0.448,1-1,1h-3c-0.552,0-1-0.448-1-1v-3
				c0-0.552,0.448-1,1-1h3c0.552,0,1,0.448,1,1V55.736z"/>
		</g>
		<g>
			<path opacity="0.05" enable-background="new    " d="M53,59.736h-3c-1.105,0-2,0.895-2,2v2c0-1.105,0.895-2,2-2h3
				c1.105,0,2,0.895,2,2v-2C55,60.632,54.104,59.736,53,59.736z"/>
			<path opacity="0.05" enable-background="new    " d="M53,50.736h-3c-1.105,0-2,0.895-2,2v2c0-1.105,0.895-2,2-2h3
				c1.105,0,2,0.895,2,2v-2C55,51.632,54.104,50.736,53,50.736z"/>
			<path opacity="0.05" enable-background="new    " d="M62,50.736h-3c-1.105,0-2,0.895-2,2v2c0-1.105,0.895-2,2-2h3
				c1.105,0,2,0.895,2,2v-2C64,51.632,63.104,50.736,62,50.736z"/>
			<path opacity="0.05" enable-background="new    " d="M62,59.736h-3c-1.105,0-2,0.895-2,2v2c0-1.105,0.895-2,2-2h3
				c1.105,0,2,0.895,2,2v-2C64,60.632,63.104,59.736,62,59.736z"/>
		</g>
		<g>
			<path opacity="0.05" enable-background="new    " d="M53,59.736h-3c-1.105,0-2,0.895-2,2v1c0-1.105,0.895-2,2-2h3
				c1.105,0,2,0.895,2,2v-1C55,60.632,54.104,59.736,53,59.736z"/>
			<path opacity="0.05" enable-background="new    " d="M53,50.736h-3c-1.105,0-2,0.895-2,2v1c0-1.105,0.895-2,2-2h3
				c1.105,0,2,0.895,2,2v-1C55,51.632,54.104,50.736,53,50.736z"/>
			<path opacity="0.05" enable-background="new    " d="M62,59.736h-3c-1.105,0-2,0.895-2,2v1c0-1.105,0.895-2,2-2h3
				c1.105,0,2,0.895,2,2v-1C64,60.632,63.104,59.736,62,59.736z"/>
			<path opacity="0.05" enable-background="new    " d="M62,50.736h-3c-1.105,0-2,0.895-2,2v1c0-1.105,0.895-2,2-2h3
				c1.105,0,2,0.895,2,2v-1C64,51.632,63.104,50.736,62,50.736z"/>
		</g>
	</g>
</g>
</svg>
